<?xml version="1.0" encoding="utf-8"?>
<!-- Generator: Adobe Illustrator 25.0.1, SVG Export Plug-In . SVG Version: 6.00 Build 0)  -->
<svg version="1.1" id="Layer_1" shape-rendering="crispEdges"
	 xmlns="http://www.w3.org/2000/svg" xmlns:xlink="http://www.w3.org/1999/xlink" x="0px" y="0px" width="46px" height="18px"
	 viewBox="0 0 46 18" enable-background="new 0 0 46 18" xml:space="preserve">
<rect x="29" fill="#8AEBF1" width="1" height="1"/>
<rect x="30" fill="#8AEBF1" width="1" height="1"/>
<rect x="31" fill="#8AEBF1" width="1" height="1"/>
<rect x="32" fill="#8AEBF1" width="1" height="1"/>
<rect x="27" y="1" fill="#8AEBF1" width="1" height="1"/>
<rect x="28" y="1" fill="#8AEBF1" width="1" height="1"/>
<rect x="29" y="1" fill="#8AEBF1" width="1" height="1"/>
<rect x="30" y="1" fill="#DFF6F5" width="1" height="1"/>
<rect x="31" y="1" fill="#DFF6F5" width="1" height="1"/>
<rect x="32" y="1" fill="#DFF6F5" width="1" height="1"/>
<rect x="33" y="1" fill="#DFF6F5" width="1" height="1"/>
<rect x="34" y="1" fill="#DFF6F5" width="1" height="1"/>
<rect x="26" y="2" fill="#8AEBF1" width="1" height="1"/>
<rect x="27" y="2" fill="#8AEBF1" width="1" height="1"/>
<rect x="28" y="2" fill="#DFF6F5" width="1" height="1"/>
<rect x="29" y="2" fill="#DFF6F5" width="1" height="1"/>
<rect x="30" y="2" fill="#DFF6F5" width="1" height="1"/>
<rect x="31" y="2" fill="#DFF6F5" width="1" height="1"/>
<rect x="32" y="2" fill="#DFF6F5" width="1" height="1"/>
<rect x="33" y="2" fill="#DFF6F5" width="1" height="1"/>
<rect x="34" y="2" fill="#DFF6F5" width="1" height="1"/>
<rect x="35" y="2" fill="#DFF6F5" width="1" height="1"/>
<rect x="25" y="3" fill="#8AEBF1" width="1" height="1"/>
<rect x="26" y="3" fill="#8AEBF1" width="1" height="1"/>
<rect x="27" y="3" fill="#DFF6F5" width="1" height="1"/>
<rect x="28" y="3" fill="#DFF6F5" width="1" height="1"/>
<rect x="29" y="3" fill="#DFF6F5" width="1" height="1"/>
<rect x="30" y="3" fill="#DFF6F5" width="1" height="1"/>
<rect x="31" y="3" fill="#DFF6F5" width="1" height="1"/>
<rect x="32" y="3" fill="#DFF6F5" width="1" height="1"/>
<rect x="33" y="3" fill="#DFF6F5" width="1" height="1"/>
<rect x="34" y="3" fill="#DFF6F5" width="1" height="1"/>
<rect x="35" y="3" fill="#DFF6F5" width="1" height="1"/>
<rect x="36" y="3" fill="#DFF6F5" width="1" height="1"/>
<rect x="24" y="4" fill="#8AEBF1" width="1" height="1"/>
<rect x="25" y="4" fill="#8AEBF1" width="1" height="1"/>
<rect x="26" y="4" fill="#DFF6F5" width="1" height="1"/>
<rect x="27" y="4" fill="#DFF6F5" width="1" height="1"/>
<rect x="28" y="4" fill="#DFF6F5" width="1" height="1"/>
<rect x="29" y="4" fill="#DFF6F5" width="1" height="1"/>
<rect x="30" y="4" fill="#DFF6F5" width="1" height="1"/>
<rect x="31" y="4" fill="#DFF6F5" width="1" height="1"/>
<rect x="32" y="4" fill="#DFF6F5" width="1" height="1"/>
<rect x="33" y="4" fill="#DFF6F5" width="1" height="1"/>
<rect x="34" y="4" fill="#DFF6F5" width="1" height="1"/>
<rect x="35" y="4" fill="#DFF6F5" width="1" height="1"/>
<rect x="36" y="4" fill="#DFF6F5" width="1" height="1"/>
<rect x="24" y="5" fill="#8AEBF1" width="1" height="1"/>
<rect x="25" y="5" fill="#DFF6F5" width="1" height="1"/>
<rect x="26" y="5" fill="#DFF6F5" width="1" height="1"/>
<rect x="27" y="5" fill="#DFF6F5" width="1" height="1"/>
<rect x="28" y="5" fill="#DFF6F5" width="1" height="1"/>
<rect x="29" y="5" fill="#DFF6F5" width="1" height="1"/>
<rect x="30" y="5" fill="#DFF6F5" width="1" height="1"/>
<rect x="31" y="5" fill="#DFF6F5" width="1" height="1"/>
<rect x="32" y="5" fill="#DFF6F5" width="1" height="1"/>
<rect x="33" y="5" fill="#DFF6F5" width="1" height="1"/>
<rect x="34" y="5" fill="#DFF6F5" width="1" height="1"/>
<rect x="35" y="5" fill="#DFF6F5" width="1" height="1"/>
<rect x="36" y="5" fill="#DFF6F5" width="1" height="1"/>
<rect x="37" y="5" fill="#DFF6F5" width="1" height="1"/>
<rect x="17" y="6" fill="#8AEBF1" width="1" height="1"/>
<rect x="18" y="6" fill="#8AEBF1" width="1" height="1"/>
<rect x="19" y="6" fill="#8AEBF1" width="1" height="1"/>
<rect x="23" y="6" fill="#8AEBF1" width="1" height="1"/>
<rect x="24" y="6" fill="#8AEBF1" width="1" height="1"/>
<rect x="25" y="6" fill="#DFF6F5" width="1" height="1"/>
<rect x="26" y="6" fill="#DFF6F5" width="1" height="1"/>
<rect x="27" y="6" fill="#DFF6F5" width="1" height="1"/>
<rect x="28" y="6" fill="#DFF6F5" width="1" height="1"/>
<rect x="29" y="6" fill="#DFF6F5" width="1" height="1"/>
<rect x="30" y="6" fill="#DFF6F5" width="1" height="1"/>
<rect x="31" y="6" fill="#DFF6F5" width="1" height="1"/>
<rect x="32" y="6" fill="#DFF6F5" width="1" height="1"/>
<rect x="33" y="6" fill="#DFF6F5" width="1" height="1"/>
<rect x="34" y="6" fill="#DFF6F5" width="1" height="1"/>
<rect x="35" y="6" fill="#DFF6F5" width="1" height="1"/>
<rect x="36" y="6" fill="#DFF6F5" width="1" height="1"/>
<rect x="37" y="6" fill="#DFF6F5" width="1" height="1"/>
<rect x="16" y="7" fill="#8AEBF1" width="1" height="1"/>
<rect x="17" y="7" fill="#8AEBF1" width="1" height="1"/>
<rect x="18" y="7" fill="#8AEBF1" width="1" height="1"/>
<rect x="19" y="7" fill="#8AEBF1" width="1" height="1"/>
<rect x="20" y="7" fill="#8AEBF1" width="1" height="1"/>
<rect x="23" y="7" fill="#8AEBF1" width="1" height="1"/>
<rect x="24" y="7" fill="#DFF6F5" width="1" height="1"/>
<rect x="25" y="7" fill="#DFF6F5" width="1" height="1"/>
<rect x="26" y="7" fill="#DFF6F5" width="1" height="1"/>
<rect x="27" y="7" fill="#DFF6F5" width="1" height="1"/>
<rect x="28" y="7" fill="#DFF6F5" width="1" height="1"/>
<rect x="29" y="7" fill="#DFF6F5" width="1" height="1"/>
<rect x="30" y="7" fill="#DFF6F5" width="1" height="1"/>
<rect x="31" y="7" fill="#DFF6F5" width="1" height="1"/>
<rect x="32" y="7" fill="#DFF6F5" width="1" height="1"/>
<rect x="33" y="7" fill="#DFF6F5" width="1" height="1"/>
<rect x="34" y="7" fill="#DFF6F5" width="1" height="1"/>
<rect x="35" y="7" fill="#DFF6F5" width="1" height="1"/>
<rect x="36" y="7" fill="#DFF6F5" width="1" height="1"/>
<rect x="37" y="7" fill="#DFF6F5" width="1" height="1"/>
<rect x="39" y="7" fill="#DFF6F5" width="1" height="1"/>
<rect x="40" y="7" fill="#DFF6F5" width="1" height="1"/>
<rect x="41" y="7" fill="#DFF6F5" width="1" height="1"/>
<rect x="42" y="7" fill="#8AEBF1" width="1" height="1"/>
<rect x="15" y="8" fill="#8AEBF1" width="1" height="1"/>
<rect x="16" y="8" fill="#DFF6F5" width="1" height="1"/>
<rect x="17" y="8" fill="#DFF6F5" width="1" height="1"/>
<rect x="18" y="8" fill="#DFF6F5" width="1" height="1"/>
<rect x="19" y="8" fill="#DFF6F5" width="1" height="1"/>
<rect x="20" y="8" fill="#8AEBF1" width="1" height="1"/>
<rect x="21" y="8" fill="#8AEBF1" width="1" height="1"/>
<rect x="23" y="8" fill="#8AEBF1" width="1" height="1"/>
<rect x="24" y="8" fill="#DFF6F5" width="1" height="1"/>
<rect x="25" y="8" fill="#DFF6F5" width="1" height="1"/>
<rect x="26" y="8" fill="#DFF6F5" width="1" height="1"/>
<rect x="27" y="8" fill="#DFF6F5" width="1" height="1"/>
<rect x="28" y="8" fill="#DFF6F5" width="1" height="1"/>
<rect x="29" y="8" fill="#DFF6F5" width="1" height="1"/>
<rect x="30" y="8" fill="#DFF6F5" width="1" height="1"/>
<rect x="31" y="8" fill="#DFF6F5" width="1" height="1"/>
<rect x="32" y="8" fill="#DFF6F5" width="1" height="1"/>
<rect x="33" y="8" fill="#DFF6F5" width="1" height="1"/>
<rect x="34" y="8" fill="#DFF6F5" width="1" height="1"/>
<rect x="35" y="8" fill="#DFF6F5" width="1" height="1"/>
<rect x="36" y="8" fill="#DFF6F5" width="1" height="1"/>
<rect x="37" y="8" fill="#DFF6F5" width="1" height="1"/>
<rect x="38" y="8" fill="#DFF6F5" width="1" height="1"/>
<rect x="39" y="8" fill="#DFF6F5" width="1" height="1"/>
<rect x="40" y="8" fill="#DFF6F5" width="1" height="1"/>
<rect x="41" y="8" fill="#DFF6F5" width="1" height="1"/>
<rect x="42" y="8" fill="#DFF6F5" width="1" height="1"/>
<rect x="43" y="8" fill="#8AEBF1" width="1" height="1"/>
<rect x="8" y="9" fill="#DFF6F5" width="1" height="1"/>
<rect x="9" y="9" fill="#DFF6F5" width="1" height="1"/>
<rect x="10" y="9" fill="#DFF6F5" width="1" height="1"/>
<rect x="11" y="9" fill="#DFF6F5" width="1" height="1"/>
<rect x="14" y="9" fill="#DFF6F5" width="1" height="1"/>
<rect x="15" y="9" fill="#DFF6F5" width="1" height="1"/>
<rect x="16" y="9" fill="#DFF6F5" width="1" height="1"/>
<rect x="17" y="9" fill="#DFF6F5" width="1" height="1"/>
<rect x="18" y="9" fill="#DFF6F5" width="1" height="1"/>
<rect x="19" y="9" fill="#DFF6F5" width="1" height="1"/>
<rect x="20" y="9" fill="#DFF6F5" width="1" height="1"/>
<rect x="21" y="9" fill="#8AEBF1" width="1" height="1"/>
<rect x="22" y="9" fill="#8AEBF1" width="1" height="1"/>
<rect x="23" y="9" fill="#8AEBF1" width="1" height="1"/>
<rect x="24" y="9" fill="#DFF6F5" width="1" height="1"/>
<rect x="25" y="9" fill="#DFF6F5" width="1" height="1"/>
<rect x="26" y="9" fill="#DFF6F5" width="1" height="1"/>
<rect x="27" y="9" fill="#DFF6F5" width="1" height="1"/>
<rect x="28" y="9" fill="#DFF6F5" width="1" height="1"/>
<rect x="29" y="9" fill="#DFF6F5" width="1" height="1"/>
<rect x="30" y="9" fill="#DFF6F5" width="1" height="1"/>
<rect x="31" y="9" fill="#DFF6F5" width="1" height="1"/>
<rect x="32" y="9" fill="#DFF6F5" width="1" height="1"/>
<rect x="33" y="9" fill="#DFF6F5" width="1" height="1"/>
<rect x="34" y="9" fill="#DFF6F5" width="1" height="1"/>
<rect x="35" y="9" fill="#DFF6F5" width="1" height="1"/>
<rect x="36" y="9" fill="#DFF6F5" width="1" height="1"/>
<rect x="37" y="9" fill="#DFF6F5" width="1" height="1"/>
<rect x="38" y="9" fill="#DFF6F5" width="1" height="1"/>
<rect x="39" y="9" fill="#DFF6F5" width="1" height="1"/>
<rect x="40" y="9" fill="#DFF6F5" width="1" height="1"/>
<rect x="41" y="9" fill="#DFF6F5" width="1" height="1"/>
<rect x="42" y="9" fill="#DFF6F5" width="1" height="1"/>
<rect x="43" y="9" fill="#DFF6F5" width="1" height="1"/>
<rect x="44" y="9" fill="#8AEBF1" width="1" height="1"/>
<rect x="7" y="10" fill="#DFF6F5" width="1" height="1"/>
<rect x="8" y="10" fill="#DFF6F5" width="1" height="1"/>
<rect x="9" y="10" fill="#DFF6F5" width="1" height="1"/>
<rect x="10" y="10" fill="#DFF6F5" width="1" height="1"/>
<rect x="11" y="10" fill="#DFF6F5" width="1" height="1"/>
<rect x="12" y="10" fill="#DFF6F5" width="1" height="1"/>
<rect x="13" y="10" fill="#DFF6F5" width="1" height="1"/>
<rect x="14" y="10" fill="#DFF6F5" width="1" height="1"/>
<rect x="15" y="10" fill="#DFF6F5" width="1" height="1"/>
<rect x="16" y="10" fill="#DFF6F5" width="1" height="1"/>
<rect x="17" y="10" fill="#DFF6F5" width="1" height="1"/>
<rect x="18" y="10" fill="#DFF6F5" width="1" height="1"/>
<rect x="19" y="10" fill="#DFF6F5" width="1" height="1"/>
<rect x="20" y="10" fill="#DFF6F5" width="1" height="1"/>
<rect x="21" y="10" fill="#DFF6F5" width="1" height="1"/>
<rect x="22" y="10" fill="#8AEBF1" width="1" height="1"/>
<rect x="23" y="10" fill="#8AEBF1" width="1" height="1"/>
<rect x="24" y="10" fill="#DFF6F5" width="1" height="1"/>
<rect x="25" y="10" fill="#DFF6F5" width="1" height="1"/>
<rect x="26" y="10" fill="#DFF6F5" width="1" height="1"/>
<rect x="27" y="10" fill="#DFF6F5" width="1" height="1"/>
<rect x="28" y="10" fill="#DFF6F5" width="1" height="1"/>
<rect x="29" y="10" fill="#DFF6F5" width="1" height="1"/>
<rect x="30" y="10" fill="#DFF6F5" width="1" height="1"/>
<rect x="31" y="10" fill="#DFF6F5" width="1" height="1"/>
<rect x="32" y="10" fill="#DFF6F5" width="1" height="1"/>
<rect x="33" y="10" fill="#DFF6F5" width="1" height="1"/>
<rect x="34" y="10" fill="#DFF6F5" width="1" height="1"/>
<rect x="35" y="10" fill="#8AEBF1" width="1" height="1"/>
<rect x="36" y="10" fill="#8AEBF1" width="1" height="1"/>
<rect x="37" y="10" fill="#DFF6F5" width="1" height="1"/>
<rect x="38" y="10" fill="#DFF6F5" width="1" height="1"/>
<rect x="39" y="10" fill="#DFF6F5" width="1" height="1"/>
<rect x="40" y="10" fill="#DFF6F5" width="1" height="1"/>
<rect x="41" y="10" fill="#DFF6F5" width="1" height="1"/>
<rect x="42" y="10" fill="#DFF6F5" width="1" height="1"/>
<rect x="43" y="10" fill="#DFF6F5" width="1" height="1"/>
<rect x="44" y="10" fill="#DFF6F5" width="1" height="1"/>
<rect x="45" y="10" fill="#8AEBF1" width="1" height="1"/>
<rect x="7" y="11" fill="#DFF6F5" width="1" height="1"/>
<rect x="8" y="11" fill="#DFF6F5" width="1" height="1"/>
<rect x="9" y="11" fill="#DFF6F5" width="1" height="1"/>
<rect x="10" y="11" fill="#DFF6F5" width="1" height="1"/>
<rect x="11" y="11" fill="#DFF6F5" width="1" height="1"/>
<rect x="12" y="11" fill="#DFF6F5" width="1" height="1"/>
<rect x="13" y="11" fill="#DFF6F5" width="1" height="1"/>
<rect x="14" y="11" fill="#DFF6F5" width="1" height="1"/>
<rect x="15" y="11" fill="#DFF6F5" width="1" height="1"/>
<rect x="16" y="11" fill="#DFF6F5" width="1" height="1"/>
<rect x="17" y="11" fill="#DFF6F5" width="1" height="1"/>
<rect x="18" y="11" fill="#DFF6F5" width="1" height="1"/>
<rect x="19" y="11" fill="#DFF6F5" width="1" height="1"/>
<rect x="20" y="11" fill="#DFF6F5" width="1" height="1"/>
<rect x="21" y="11" fill="#DFF6F5" width="1" height="1"/>
<rect x="22" y="11" fill="#DFF6F5" width="1" height="1"/>
<rect x="23" y="11" fill="#8AEBF1" width="1" height="1"/>
<rect x="24" y="11" fill="#DFF6F5" width="1" height="1"/>
<rect x="25" y="11" fill="#DFF6F5" width="1" height="1"/>
<rect x="26" y="11" fill="#DFF6F5" width="1" height="1"/>
<rect x="27" y="11" fill="#DFF6F5" width="1" height="1"/>
<rect x="28" y="11" fill="#DFF6F5" width="1" height="1"/>
<rect x="29" y="11" fill="#DFF6F5" width="1" height="1"/>
<rect x="30" y="11" fill="#DFF6F5" width="1" height="1"/>
<rect x="31" y="11" fill="#DFF6F5" width="1" height="1"/>
<rect x="32" y="11" fill="#DFF6F5" width="1" height="1"/>
<rect x="33" y="11" fill="#DFF6F5" width="1" height="1"/>
<rect x="34" y="11" fill="#DFF6F5" width="1" height="1"/>
<rect x="35" y="11" fill="#DFF6F5" width="1" height="1"/>
<rect x="36" y="11" fill="#8AEBF1" width="1" height="1"/>
<rect x="37" y="11" fill="#8AEBF1" width="1" height="1"/>
<rect x="38" y="11" fill="#DFF6F5" width="1" height="1"/>
<rect x="39" y="11" fill="#DFF6F5" width="1" height="1"/>
<rect x="40" y="11" fill="#DFF6F5" width="1" height="1"/>
<rect x="41" y="11" fill="#DFF6F5" width="1" height="1"/>
<rect x="42" y="11" fill="#DFF6F5" width="1" height="1"/>
<rect x="43" y="11" fill="#DFF6F5" width="1" height="1"/>
<rect x="44" y="11" fill="#8AEBF1" width="1" height="1"/>
<rect x="45" y="11" fill="#8AEBF1" width="1" height="1"/>
<rect x="5" y="12" fill="#DFF6F5" width="1" height="1"/>
<rect x="6" y="12" fill="#DFF6F5" width="1" height="1"/>
<rect x="7" y="12" fill="#DFF6F5" width="1" height="1"/>
<rect x="8" y="12" fill="#DFF6F5" width="1" height="1"/>
<rect x="9" y="12" fill="#DFF6F5" width="1" height="1"/>
<rect x="10" y="12" fill="#DFF6F5" width="1" height="1"/>
<rect x="11" y="12" fill="#DFF6F5" width="1" height="1"/>
<rect x="12" y="12" fill="#DFF6F5" width="1" height="1"/>
<rect x="13" y="12" fill="#DFF6F5" width="1" height="1"/>
<rect x="14" y="12" fill="#DFF6F5" width="1" height="1"/>
<rect x="15" y="12" fill="#DFF6F5" width="1" height="1"/>
<rect x="16" y="12" fill="#DFF6F5" width="1" height="1"/>
<rect x="17" y="12" fill="#DFF6F5" width="1" height="1"/>
<rect x="18" y="12" fill="#DFF6F5" width="1" height="1"/>
<rect x="19" y="12" fill="#DFF6F5" width="1" height="1"/>
<rect x="20" y="12" fill="#DFF6F5" width="1" height="1"/>
<rect x="21" y="12" fill="#DFF6F5" width="1" height="1"/>
<rect x="22" y="12" fill="#DFF6F5" width="1" height="1"/>
<rect x="23" y="12" fill="#DFF6F5" width="1" height="1"/>
<rect x="24" y="12" fill="#DFF6F5" width="1" height="1"/>
<rect x="25" y="12" fill="#DFF6F5" width="1" height="1"/>
<rect x="26" y="12" fill="#DFF6F5" width="1" height="1"/>
<rect x="27" y="12" fill="#DFF6F5" width="1" height="1"/>
<rect x="28" y="12" fill="#DFF6F5" width="1" height="1"/>
<rect x="29" y="12" fill="#DFF6F5" width="1" height="1"/>
<rect x="30" y="12" fill="#DFF6F5" width="1" height="1"/>
<rect x="31" y="12" fill="#DFF6F5" width="1" height="1"/>
<rect x="32" y="12" fill="#DFF6F5" width="1" height="1"/>
<rect x="33" y="12" fill="#DFF6F5" width="1" height="1"/>
<rect x="34" y="12" fill="#DFF6F5" width="1" height="1"/>
<rect x="35" y="12" fill="#DFF6F5" width="1" height="1"/>
<rect x="36" y="12" fill="#8AEBF1" width="1" height="1"/>
<rect x="37" y="12" fill="#8AEBF1" width="1" height="1"/>
<rect x="38" y="12" fill="#DFF6F5" width="1" height="1"/>
<rect x="39" y="12" fill="#DFF6F5" width="1" height="1"/>
<rect x="40" y="12" fill="#DFF6F5" width="1" height="1"/>
<rect x="41" y="12" fill="#DFF6F5" width="1" height="1"/>
<rect x="42" y="12" fill="#DFF6F5" width="1" height="1"/>
<rect x="43" y="12" fill="#8AEBF1" width="1" height="1"/>
<rect x="44" y="12" fill="#8AEBF1" width="1" height="1"/>
<rect x="2" y="13" fill="#DFF6F5" width="1" height="1"/>
<rect x="3" y="13" fill="#DFF6F5" width="1" height="1"/>
<rect x="4" y="13" fill="#DFF6F5" width="1" height="1"/>
<rect x="5" y="13" fill="#DFF6F5" width="1" height="1"/>
<rect x="6" y="13" fill="#DFF6F5" width="1" height="1"/>
<rect x="7" y="13" fill="#DFF6F5" width="1" height="1"/>
<rect x="8" y="13" fill="#DFF6F5" width="1" height="1"/>
<rect x="9" y="13" fill="#DFF6F5" width="1" height="1"/>
<rect x="10" y="13" fill="#DFF6F5" width="1" height="1"/>
<rect x="11" y="13" fill="#DFF6F5" width="1" height="1"/>
<rect x="12" y="13" fill="#DFF6F5" width="1" height="1"/>
<rect x="13" y="13" fill="#DFF6F5" width="1" height="1"/>
<rect x="14" y="13" fill="#DFF6F5" width="1" height="1"/>
<rect x="15" y="13" fill="#DFF6F5" width="1" height="1"/>
<rect x="16" y="13" fill="#DFF6F5" width="1" height="1"/>
<rect x="17" y="13" fill="#DFF6F5" width="1" height="1"/>
<rect x="18" y="13" fill="#DFF6F5" width="1" height="1"/>
<rect x="19" y="13" fill="#DFF6F5" width="1" height="1"/>
<rect x="20" y="13" fill="#DFF6F5" width="1" height="1"/>
<rect x="21" y="13" fill="#DFF6F5" width="1" height="1"/>
<rect x="22" y="13" fill="#DFF6F5" width="1" height="1"/>
<rect x="23" y="13" fill="#DFF6F5" width="1" height="1"/>
<rect x="24" y="13" fill="#DFF6F5" width="1" height="1"/>
<rect x="25" y="13" fill="#DFF6F5" width="1" height="1"/>
<rect x="26" y="13" fill="#DFF6F5" width="1" height="1"/>
<rect x="27" y="13" fill="#DFF6F5" width="1" height="1"/>
<rect x="28" y="13" fill="#DFF6F5" width="1" height="1"/>
<rect x="29" y="13" fill="#DFF6F5" width="1" height="1"/>
<rect x="30" y="13" fill="#DFF6F5" width="1" height="1"/>
<rect x="31" y="13" fill="#DFF6F5" width="1" height="1"/>
<rect x="32" y="13" fill="#DFF6F5" width="1" height="1"/>
<rect x="33" y="13" fill="#DFF6F5" width="1" height="1"/>
<rect x="34" y="13" fill="#DFF6F5" width="1" height="1"/>
<rect x="35" y="13" fill="#8AEBF1" width="1" height="1"/>
<rect x="36" y="13" fill="#8AEBF1" width="1" height="1"/>
<rect x="37" y="13" fill="#8AEBF1" width="1" height="1"/>
<rect x="38" y="13" fill="#DFF6F5" width="1" height="1"/>
<rect x="39" y="13" fill="#DFF6F5" width="1" height="1"/>
<rect x="40" y="13" fill="#DFF6F5" width="1" height="1"/>
<rect x="41" y="13" fill="#DFF6F5" width="1" height="1"/>
<rect x="42" y="13" fill="#8AEBF1" width="1" height="1"/>
<rect x="43" y="13" fill="#8AEBF1" width="1" height="1"/>
<rect x="44" y="13" fill="#8AEBF1" width="1" height="1"/>
<rect x="1" y="14" fill="#DFF6F5" width="1" height="1"/>
<rect x="2" y="14" fill="#DFF6F5" width="1" height="1"/>
<rect x="3" y="14" fill="#DFF6F5" width="1" height="1"/>
<rect x="4" y="14" fill="#DFF6F5" width="1" height="1"/>
<rect x="5" y="14" fill="#DFF6F5" width="1" height="1"/>
<rect x="6" y="14" fill="#DFF6F5" width="1" height="1"/>
<rect x="7" y="14" fill="#DFF6F5" width="1" height="1"/>
<rect x="8" y="14" fill="#DFF6F5" width="1" height="1"/>
<rect x="9" y="14" fill="#DFF6F5" width="1" height="1"/>
<rect x="10" y="14" fill="#DFF6F5" width="1" height="1"/>
<rect x="11" y="14" fill="#DFF6F5" width="1" height="1"/>
<rect x="12" y="14" fill="#DFF6F5" width="1" height="1"/>
<rect x="13" y="14" fill="#DFF6F5" width="1" height="1"/>
<rect x="14" y="14" fill="#DFF6F5" width="1" height="1"/>
<rect x="15" y="14" fill="#DFF6F5" width="1" height="1"/>
<rect x="16" y="14" fill="#DFF6F5" width="1" height="1"/>
<rect x="17" y="14" fill="#DFF6F5" width="1" height="1"/>
<rect x="18" y="14" fill="#DFF6F5" width="1" height="1"/>
<rect x="19" y="14" fill="#DFF6F5" width="1" height="1"/>
<rect x="20" y="14" fill="#DFF6F5" width="1" height="1"/>
<rect x="21" y="14" fill="#DFF6F5" width="1" height="1"/>
<rect x="22" y="14" fill="#DFF6F5" width="1" height="1"/>
<rect x="23" y="14" fill="#DFF6F5" width="1" height="1"/>
<rect x="24" y="14" fill="#DFF6F5" width="1" height="1"/>
<rect x="25" y="14" fill="#DFF6F5" width="1" height="1"/>
<rect x="26" y="14" fill="#DFF6F5" width="1" height="1"/>
<rect x="27" y="14" fill="#DFF6F5" width="1" height="1"/>
<rect x="28" y="14" fill="#DFF6F5" width="1" height="1"/>
<rect x="29" y="14" fill="#DFF6F5" width="1" height="1"/>
<rect x="30" y="14" fill="#DFF6F5" width="1" height="1"/>
<rect x="31" y="14" fill="#DFF6F5" width="1" height="1"/>
<rect x="32" y="14" fill="#DFF6F5" width="1" height="1"/>
<rect x="33" y="14" fill="#8AEBF1" width="1" height="1"/>
<rect x="34" y="14" fill="#8AEBF1" width="1" height="1"/>
<rect x="35" y="14" fill="#8AEBF1" width="1" height="1"/>
<rect x="36" y="14" fill="#8AEBF1" width="1" height="1"/>
<rect x="37" y="14" fill="#8AEBF1" width="1" height="1"/>
<rect x="38" y="14" fill="#8AEBF1" width="1" height="1"/>
<rect x="39" y="14" fill="#DFF6F5" width="1" height="1"/>
<rect x="40" y="14" fill="#DFF6F5" width="1" height="1"/>
<rect x="41" y="14" fill="#DFF6F5" width="1" height="1"/>
<rect x="42" y="14" fill="#8AEBF1" width="1" height="1"/>
<rect x="43" y="14" fill="#8AEBF1" width="1" height="1"/>
<rect y="15" fill="#8AEBF1" width="1" height="1"/>
<rect x="1" y="15" fill="#8AEBF1" width="1" height="1"/>
<rect x="2" y="15" fill="#8AEBF1" width="1" height="1"/>
<rect x="3" y="15" fill="#DFF6F5" width="1" height="1"/>
<rect x="4" y="15" fill="#DFF6F5" width="1" height="1"/>
<rect x="5" y="15" fill="#DFF6F5" width="1" height="1"/>
<rect x="6" y="15" fill="#DFF6F5" width="1" height="1"/>
<rect x="7" y="15" fill="#DFF6F5" width="1" height="1"/>
<rect x="8" y="15" fill="#DFF6F5" width="1" height="1"/>
<rect x="9" y="15" fill="#DFF6F5" width="1" height="1"/>
<rect x="10" y="15" fill="#DFF6F5" width="1" height="1"/>
<rect x="11" y="15" fill="#DFF6F5" width="1" height="1"/>
<rect x="12" y="15" fill="#DFF6F5" width="1" height="1"/>
<rect x="13" y="15" fill="#DFF6F5" width="1" height="1"/>
<rect x="14" y="15" fill="#DFF6F5" width="1" height="1"/>
<rect x="15" y="15" fill="#DFF6F5" width="1" height="1"/>
<rect x="16" y="15" fill="#DFF6F5" width="1" height="1"/>
<rect x="17" y="15" fill="#DFF6F5" width="1" height="1"/>
<rect x="18" y="15" fill="#DFF6F5" width="1" height="1"/>
<rect x="19" y="15" fill="#DFF6F5" width="1" height="1"/>
<rect x="20" y="15" fill="#8AEBF1" width="1" height="1"/>
<rect x="21" y="15" fill="#DFF6F5" width="1" height="1"/>
<rect x="22" y="15" fill="#DFF6F5" width="1" height="1"/>
<rect x="23" y="15" fill="#DFF6F5" width="1" height="1"/>
<rect x="24" y="15" fill="#DFF6F5" width="1" height="1"/>
<rect x="25" y="15" fill="#DFF6F5" width="1" height="1"/>
<rect x="26" y="15" fill="#DFF6F5" width="1" height="1"/>
<rect x="27" y="15" fill="#DFF6F5" width="1" height="1"/>
<rect x="28" y="15" fill="#DFF6F5" width="1" height="1"/>
<rect x="29" y="15" fill="#DFF6F5" width="1" height="1"/>
<rect x="30" y="15" fill="#8AEBF1" width="1" height="1"/>
<rect x="31" y="15" fill="#8AEBF1" width="1" height="1"/>
<rect x="32" y="15" fill="#8AEBF1" width="1" height="1"/>
<rect x="33" y="15" fill="#8AEBF1" width="1" height="1"/>
<rect x="34" y="15" fill="#8AEBF1" width="1" height="1"/>
<rect x="35" y="15" fill="#8AEBF1" width="1" height="1"/>
<rect x="36" y="15" fill="#8AEBF1" width="1" height="1"/>
<rect x="37" y="15" fill="#8AEBF1" width="1" height="1"/>
<rect x="38" y="15" fill="#8AEBF1" width="1" height="1"/>
<rect x="39" y="15" fill="#8AEBF1" width="1" height="1"/>
<rect x="40" y="15" fill="#8AEBF1" width="1" height="1"/>
<rect x="41" y="15" fill="#8AEBF1" width="1" height="1"/>
<rect x="42" y="15" fill="#8AEBF1" width="1" height="1"/>
<rect x="3" y="16" fill="#8AEBF1" width="1" height="1"/>
<rect x="4" y="16" fill="#8AEBF1" width="1" height="1"/>
<rect x="5" y="16" fill="#8AEBF1" width="1" height="1"/>
<rect x="6" y="16" fill="#8AEBF1" width="1" height="1"/>
<rect x="7" y="16" fill="#8AEBF1" width="1" height="1"/>
<rect x="8" y="16" fill="#8AEBF1" width="1" height="1"/>
<rect x="9" y="16" fill="#8AEBF1" width="1" height="1"/>
<rect x="10" y="16" fill="#8AEBF1" width="1" height="1"/>
<rect x="11" y="16" fill="#8AEBF1" width="1" height="1"/>
<rect x="12" y="16" fill="#DFF6F5" width="1" height="1"/>
<rect x="13" y="16" fill="#DFF6F5" width="1" height="1"/>
<rect x="14" y="16" fill="#DFF6F5" width="1" height="1"/>
<rect x="15" y="16" fill="#DFF6F5" width="1" height="1"/>
<rect x="16" y="16" fill="#DFF6F5" width="1" height="1"/>
<rect x="17" y="16" fill="#DFF6F5" width="1" height="1"/>
<rect x="18" y="16" fill="#DFF6F5" width="1" height="1"/>
<rect x="19" y="16" fill="#8AEBF1" width="1" height="1"/>
<rect x="20" y="16" fill="#8AEBF1" width="1" height="1"/>
<rect x="21" y="16" fill="#DFF6F5" width="1" height="1"/>
<rect x="22" y="16" fill="#DFF6F5" width="1" height="1"/>
<rect x="23" y="16" fill="#DFF6F5" width="1" height="1"/>
<rect x="24" y="16" fill="#DFF6F5" width="1" height="1"/>
<rect x="25" y="16" fill="#8AEBF1" width="1" height="1"/>
<rect x="26" y="16" fill="#8AEBF1" width="1" height="1"/>
<rect x="27" y="16" fill="#8AEBF1" width="1" height="1"/>
<rect x="28" y="16" fill="#8AEBF1" width="1" height="1"/>
<rect x="29" y="16" fill="#8AEBF1" width="1" height="1"/>
<rect x="30" y="16" fill="#8AEBF1" width="1" height="1"/>
<rect x="31" y="16" fill="#8AEBF1" width="1" height="1"/>
<rect x="32" y="16" fill="#8AEBF1" width="1" height="1"/>
<rect x="33" y="16" fill="#8AEBF1" width="1" height="1"/>
<rect x="34" y="16" fill="#8AEBF1" width="1" height="1"/>
<rect x="35" y="16" fill="#8AEBF1" width="1" height="1"/>
<rect x="36" y="16" fill="#8AEBF1" width="1" height="1"/>
<rect x="37" y="16" fill="#8AEBF1" width="1" height="1"/>
<rect x="38" y="16" fill="#8AEBF1" width="1" height="1"/>
<rect x="39" y="16" fill="#8AEBF1" width="1" height="1"/>
<rect x="40" y="16" fill="#8AEBF1" width="1" height="1"/>
<rect x="11" y="17" fill="#8AEBF1" width="1" height="1"/>
<rect x="12" y="17" fill="#8AEBF1" width="1" height="1"/>
<rect x="13" y="17" fill="#8AEBF1" width="1" height="1"/>
<rect x="14" y="17" fill="#8AEBF1" width="1" height="1"/>
<rect x="15" y="17" fill="#8AEBF1" width="1" height="1"/>
<rect x="16" y="17" fill="#8AEBF1" width="1" height="1"/>
<rect x="17" y="17" fill="#8AEBF1" width="1" height="1"/>
<rect x="18" y="17" fill="#8AEBF1" width="1" height="1"/>
<rect x="19" y="17" fill="#8AEBF1" width="1" height="1"/>
<rect x="20" y="17" fill="#8AEBF1" width="1" height="1"/>
<rect x="21" y="17" fill="#8AEBF1" width="1" height="1"/>
<rect x="22" y="17" fill="#8AEBF1" width="1" height="1"/>
<rect x="23" y="17" fill="#8AEBF1" width="1" height="1"/>
<rect x="24" y="17" fill="#8AEBF1" width="1" height="1"/>
<rect x="25" y="17" fill="#8AEBF1" width="1" height="1"/>
<rect x="26" y="17" fill="#8AEBF1" width="1" height="1"/>
<rect x="34" y="17" fill="#8AEBF1" width="1" height="1"/>
<rect x="35" y="17" fill="#8AEBF1" width="1" height="1"/>
<rect x="36" y="17" fill="#8AEBF1" width="1" height="1"/>
</svg>
