<?xml version="1.0" encoding="utf-8"?>
<!-- Generator: Adobe Illustrator 25.0.1, SVG Export Plug-In . SVG Version: 6.00 Build 0)  -->
<svg version="1.1" id="Layer_1" shape-rendering="crispEdges"
	 xmlns="http://www.w3.org/2000/svg" xmlns:xlink="http://www.w3.org/1999/xlink" x="0px" y="0px" width="29px" height="10px"
	 viewBox="0 0 29 10" enable-background="new 0 0 29 10" xml:space="preserve">
<rect x="15" fill="#8AEBF1" width="1" height="1"/>
<rect x="16" fill="#DFF6F5" width="1" height="1"/>
<rect x="17" fill="#DFF6F5" width="1" height="1"/>
<rect x="18" fill="#DFF6F5" width="1" height="1"/>
<rect x="19" fill="#DFF6F5" width="1" height="1"/>
<rect x="20" fill="#DFF6F5" width="1" height="1"/>
<rect x="13" y="1" fill="#8AEBF1" width="1" height="1"/>
<rect x="14" y="1" fill="#8AEBF1" width="1" height="1"/>
<rect x="15" y="1" fill="#DFF6F5" width="1" height="1"/>
<rect x="16" y="1" fill="#DFF6F5" width="1" height="1"/>
<rect x="17" y="1" fill="#DFF6F5" width="1" height="1"/>
<rect x="18" y="1" fill="#DFF6F5" width="1" height="1"/>
<rect x="19" y="1" fill="#DFF6F5" width="1" height="1"/>
<rect x="20" y="1" fill="#DFF6F5" width="1" height="1"/>
<rect x="21" y="1" fill="#DFF6F5" width="1" height="1"/>
<rect x="22" y="1" fill="#DFF6F5" width="1" height="1"/>
<rect x="12" y="2" fill="#8AEBF1" width="1" height="1"/>
<rect x="13" y="2" fill="#8AEBF1" width="1" height="1"/>
<rect x="14" y="2" fill="#DFF6F5" width="1" height="1"/>
<rect x="15" y="2" fill="#DFF6F5" width="1" height="1"/>
<rect x="16" y="2" fill="#DFF6F5" width="1" height="1"/>
<rect x="17" y="2" fill="#DFF6F5" width="1" height="1"/>
<rect x="18" y="2" fill="#DFF6F5" width="1" height="1"/>
<rect x="19" y="2" fill="#DFF6F5" width="1" height="1"/>
<rect x="20" y="2" fill="#DFF6F5" width="1" height="1"/>
<rect x="21" y="2" fill="#DFF6F5" width="1" height="1"/>
<rect x="22" y="2" fill="#DFF6F5" width="1" height="1"/>
<rect x="23" y="2" fill="#DFF6F5" width="1" height="1"/>
<rect x="11" y="3" fill="#8AEBF1" width="1" height="1"/>
<rect x="12" y="3" fill="#8AEBF1" width="1" height="1"/>
<rect x="13" y="3" fill="#8AEBF1" width="1" height="1"/>
<rect x="14" y="3" fill="#DFF6F5" width="1" height="1"/>
<rect x="15" y="3" fill="#DFF6F5" width="1" height="1"/>
<rect x="16" y="3" fill="#DFF6F5" width="1" height="1"/>
<rect x="17" y="3" fill="#DFF6F5" width="1" height="1"/>
<rect x="18" y="3" fill="#DFF6F5" width="1" height="1"/>
<rect x="19" y="3" fill="#DFF6F5" width="1" height="1"/>
<rect x="20" y="3" fill="#DFF6F5" width="1" height="1"/>
<rect x="21" y="3" fill="#DFF6F5" width="1" height="1"/>
<rect x="22" y="3" fill="#DFF6F5" width="1" height="1"/>
<rect x="23" y="3" fill="#DFF6F5" width="1" height="1"/>
<rect x="7" y="4" fill="#8AEBF1" width="1" height="1"/>
<rect x="8" y="4" fill="#8AEBF1" width="1" height="1"/>
<rect x="10" y="4" fill="#8AEBF1" width="1" height="1"/>
<rect x="11" y="4" fill="#8AEBF1" width="1" height="1"/>
<rect x="12" y="4" fill="#8AEBF1" width="1" height="1"/>
<rect x="13" y="4" fill="#DFF6F5" width="1" height="1"/>
<rect x="14" y="4" fill="#DFF6F5" width="1" height="1"/>
<rect x="15" y="4" fill="#DFF6F5" width="1" height="1"/>
<rect x="16" y="4" fill="#DFF6F5" width="1" height="1"/>
<rect x="17" y="4" fill="#DFF6F5" width="1" height="1"/>
<rect x="18" y="4" fill="#DFF6F5" width="1" height="1"/>
<rect x="19" y="4" fill="#DFF6F5" width="1" height="1"/>
<rect x="20" y="4" fill="#DFF6F5" width="1" height="1"/>
<rect x="21" y="4" fill="#DFF6F5" width="1" height="1"/>
<rect x="22" y="4" fill="#DFF6F5" width="1" height="1"/>
<rect x="23" y="4" fill="#DFF6F5" width="1" height="1"/>
<rect x="24" y="4" fill="#DFF6F5" width="1" height="1"/>
<rect x="5" y="5" fill="#8AEBF1" width="1" height="1"/>
<rect x="6" y="5" fill="#8AEBF1" width="1" height="1"/>
<rect x="7" y="5" fill="#8AEBF1" width="1" height="1"/>
<rect x="8" y="5" fill="#8AEBF1" width="1" height="1"/>
<rect x="9" y="5" fill="#8AEBF1" width="1" height="1"/>
<rect x="10" y="5" fill="#8AEBF1" width="1" height="1"/>
<rect x="11" y="5" fill="#DFF6F5" width="1" height="1"/>
<rect x="12" y="5" fill="#8AEBF1" width="1" height="1"/>
<rect x="13" y="5" fill="#DFF6F5" width="1" height="1"/>
<rect x="14" y="5" fill="#DFF6F5" width="1" height="1"/>
<rect x="15" y="5" fill="#DFF6F5" width="1" height="1"/>
<rect x="16" y="5" fill="#DFF6F5" width="1" height="1"/>
<rect x="17" y="5" fill="#DFF6F5" width="1" height="1"/>
<rect x="18" y="5" fill="#8AEBF1" width="1" height="1"/>
<rect x="19" y="5" fill="#8AEBF1" width="1" height="1"/>
<rect x="20" y="5" fill="#DFF6F5" width="1" height="1"/>
<rect x="21" y="5" fill="#DFF6F5" width="1" height="1"/>
<rect x="22" y="5" fill="#DFF6F5" width="1" height="1"/>
<rect x="23" y="5" fill="#DFF6F5" width="1" height="1"/>
<rect x="24" y="5" fill="#DFF6F5" width="1" height="1"/>
<rect x="25" y="5" fill="#DFF6F5" width="1" height="1"/>
<rect x="26" y="5" fill="#DFF6F5" width="1" height="1"/>
<rect x="2" y="6" fill="#8AEBF1" width="1" height="1"/>
<rect x="3" y="6" fill="#8AEBF1" width="1" height="1"/>
<rect x="4" y="6" fill="#8AEBF1" width="1" height="1"/>
<rect x="5" y="6" fill="#8AEBF1" width="1" height="1"/>
<rect x="6" y="6" fill="#8AEBF1" width="1" height="1"/>
<rect x="7" y="6" fill="#8AEBF1" width="1" height="1"/>
<rect x="8" y="6" fill="#8AEBF1" width="1" height="1"/>
<rect x="9" y="6" fill="#8AEBF1" width="1" height="1"/>
<rect x="10" y="6" fill="#8AEBF1" width="1" height="1"/>
<rect x="11" y="6" fill="#DFF6F5" width="1" height="1"/>
<rect x="12" y="6" fill="#DFF6F5" width="1" height="1"/>
<rect x="13" y="6" fill="#DFF6F5" width="1" height="1"/>
<rect x="14" y="6" fill="#DFF6F5" width="1" height="1"/>
<rect x="15" y="6" fill="#DFF6F5" width="1" height="1"/>
<rect x="16" y="6" fill="#DFF6F5" width="1" height="1"/>
<rect x="17" y="6" fill="#DFF6F5" width="1" height="1"/>
<rect x="18" y="6" fill="#DFF6F5" width="1" height="1"/>
<rect x="19" y="6" fill="#8AEBF1" width="1" height="1"/>
<rect x="20" y="6" fill="#8AEBF1" width="1" height="1"/>
<rect x="21" y="6" fill="#DFF6F5" width="1" height="1"/>
<rect x="22" y="6" fill="#DFF6F5" width="1" height="1"/>
<rect x="23" y="6" fill="#DFF6F5" width="1" height="1"/>
<rect x="24" y="6" fill="#DFF6F5" width="1" height="1"/>
<rect x="25" y="6" fill="#DFF6F5" width="1" height="1"/>
<rect x="26" y="6" fill="#DFF6F5" width="1" height="1"/>
<rect x="27" y="6" fill="#DFF6F5" width="1" height="1"/>
<rect x="1" y="7" fill="#8AEBF1" width="1" height="1"/>
<rect x="2" y="7" fill="#8AEBF1" width="1" height="1"/>
<rect x="3" y="7" fill="#8AEBF1" width="1" height="1"/>
<rect x="4" y="7" fill="#8AEBF1" width="1" height="1"/>
<rect x="5" y="7" fill="#8AEBF1" width="1" height="1"/>
<rect x="6" y="7" fill="#8AEBF1" width="1" height="1"/>
<rect x="7" y="7" fill="#DFF6F5" width="1" height="1"/>
<rect x="8" y="7" fill="#DFF6F5" width="1" height="1"/>
<rect x="9" y="7" fill="#DFF6F5" width="1" height="1"/>
<rect x="10" y="7" fill="#DFF6F5" width="1" height="1"/>
<rect x="11" y="7" fill="#DFF6F5" width="1" height="1"/>
<rect x="12" y="7" fill="#DFF6F5" width="1" height="1"/>
<rect x="13" y="7" fill="#DFF6F5" width="1" height="1"/>
<rect x="14" y="7" fill="#DFF6F5" width="1" height="1"/>
<rect x="15" y="7" fill="#DFF6F5" width="1" height="1"/>
<rect x="16" y="7" fill="#DFF6F5" width="1" height="1"/>
<rect x="17" y="7" fill="#DFF6F5" width="1" height="1"/>
<rect x="18" y="7" fill="#8AEBF1" width="1" height="1"/>
<rect x="19" y="7" fill="#8AEBF1" width="1" height="1"/>
<rect x="20" y="7" fill="#8AEBF1" width="1" height="1"/>
<rect x="21" y="7" fill="#8AEBF1" width="1" height="1"/>
<rect x="22" y="7" fill="#DFF6F5" width="1" height="1"/>
<rect x="23" y="7" fill="#DFF6F5" width="1" height="1"/>
<rect x="24" y="7" fill="#DFF6F5" width="1" height="1"/>
<rect x="25" y="7" fill="#DFF6F5" width="1" height="1"/>
<rect x="26" y="7" fill="#DFF6F5" width="1" height="1"/>
<rect x="27" y="7" fill="#DFF6F5" width="1" height="1"/>
<rect x="28" y="7" fill="#DFF6F5" width="1" height="1"/>
<rect y="8" fill="#8AEBF1" width="1" height="1"/>
<rect x="1" y="8" fill="#8AEBF1" width="1" height="1"/>
<rect x="2" y="8" fill="#8AEBF1" width="1" height="1"/>
<rect x="3" y="8" fill="#8AEBF1" width="1" height="1"/>
<rect x="4" y="8" fill="#8AEBF1" width="1" height="1"/>
<rect x="5" y="8" fill="#8AEBF1" width="1" height="1"/>
<rect x="6" y="8" fill="#8AEBF1" width="1" height="1"/>
<rect x="7" y="8" fill="#8AEBF1" width="1" height="1"/>
<rect x="8" y="8" fill="#DFF6F5" width="1" height="1"/>
<rect x="9" y="8" fill="#DFF6F5" width="1" height="1"/>
<rect x="10" y="8" fill="#DFF6F5" width="1" height="1"/>
<rect x="11" y="8" fill="#DFF6F5" width="1" height="1"/>
<rect x="12" y="8" fill="#DFF6F5" width="1" height="1"/>
<rect x="13" y="8" fill="#DFF6F5" width="1" height="1"/>
<rect x="14" y="8" fill="#DFF6F5" width="1" height="1"/>
<rect x="15" y="8" fill="#DFF6F5" width="1" height="1"/>
<rect x="16" y="8" fill="#8AEBF1" width="1" height="1"/>
<rect x="17" y="8" fill="#8AEBF1" width="1" height="1"/>
<rect x="18" y="8" fill="#8AEBF1" width="1" height="1"/>
<rect x="19" y="8" fill="#8AEBF1" width="1" height="1"/>
<rect x="20" y="8" fill="#8AEBF1" width="1" height="1"/>
<rect x="21" y="8" fill="#8AEBF1" width="1" height="1"/>
<rect x="22" y="8" fill="#8AEBF1" width="1" height="1"/>
<rect x="23" y="8" fill="#8AEBF1" width="1" height="1"/>
<rect x="24" y="8" fill="#8AEBF1" width="1" height="1"/>
<rect x="25" y="8" fill="#8AEBF1" width="1" height="1"/>
<rect x="26" y="8" fill="#8AEBF1" width="1" height="1"/>
<rect x="27" y="8" fill="#8AEBF1" width="1" height="1"/>
<rect x="5" y="9" fill="#8AEBF1" width="1" height="1"/>
<rect x="6" y="9" fill="#8AEBF1" width="1" height="1"/>
<rect x="7" y="9" fill="#8AEBF1" width="1" height="1"/>
<rect x="8" y="9" fill="#8AEBF1" width="1" height="1"/>
<rect x="9" y="9" fill="#8AEBF1" width="1" height="1"/>
<rect x="10" y="9" fill="#8AEBF1" width="1" height="1"/>
<rect x="11" y="9" fill="#8AEBF1" width="1" height="1"/>
<rect x="12" y="9" fill="#8AEBF1" width="1" height="1"/>
<rect x="13" y="9" fill="#8AEBF1" width="1" height="1"/>
<rect x="14" y="9" fill="#8AEBF1" width="1" height="1"/>
<rect x="15" y="9" fill="#8AEBF1" width="1" height="1"/>
<rect x="16" y="9" fill="#8AEBF1" width="1" height="1"/>
<rect x="17" y="9" fill="#8AEBF1" width="1" height="1"/>
<rect x="18" y="9" fill="#8AEBF1" width="1" height="1"/>
<rect x="19" y="9" fill="#8AEBF1" width="1" height="1"/>
<rect x="20" y="9" fill="#8AEBF1" width="1" height="1"/>
<rect x="21" y="9" fill="#8AEBF1" width="1" height="1"/>
<rect x="22" y="9" fill="#8AEBF1" width="1" height="1"/>
</svg>
